<mxfile host="app.diagrams.net" agent="Mozilla/5.0 (Windows NT 10.0; Win64; x64) AppleWebKit/537.36 (KHTML, like Gecko) Chrome/138.0.0.0 Safari/537.36" version="28.0.9">
  <diagram name="Page-1" id="rwzWzy93OpaWQYICMneB">
    <mxGraphModel dx="2278" dy="1777" grid="1" gridSize="20" guides="1" tooltips="1" connect="1" arrows="1" fold="1" page="1" pageScale="1" pageWidth="1100" pageHeight="850" math="0" shadow="0">
      <root>
        <mxCell id="0" />
        <mxCell id="1" parent="0" />
        <mxCell id="AIjkGTHtsxKVKW9na2vk-14" value="&lt;div&gt;&lt;font style=&quot;font-size: 24px;&quot;&gt;Events&lt;/font&gt;&lt;/div&gt;&lt;div&gt;&lt;br&gt;&lt;/div&gt;&lt;div&gt;&lt;br&gt;&lt;/div&gt;&lt;div&gt;&lt;br&gt;&lt;/div&gt;&lt;div&gt;&lt;br&gt;&lt;/div&gt;&lt;div&gt;&lt;br&gt;&lt;/div&gt;&lt;div&gt;&lt;br&gt;&lt;/div&gt;&lt;div&gt;&lt;br&gt;&lt;/div&gt;&lt;div&gt;&lt;br&gt;&lt;/div&gt;&lt;div&gt;&lt;br&gt;&lt;/div&gt;&lt;div&gt;&lt;br&gt;&lt;/div&gt;&lt;div&gt;&lt;br&gt;&lt;/div&gt;&lt;div&gt;&lt;br&gt;&lt;/div&gt;&lt;div&gt;&lt;br&gt;&lt;/div&gt;&lt;div&gt;&lt;br&gt;&lt;/div&gt;&lt;div&gt;&lt;br&gt;&lt;/div&gt;" style="rounded=1;whiteSpace=wrap;html=1;fillColor=#FFCCFF;" vertex="1" parent="1">
          <mxGeometry x="360" y="328" width="800" height="280" as="geometry" />
        </mxCell>
        <mxCell id="AIjkGTHtsxKVKW9na2vk-13" value="&lt;div&gt;&lt;font style=&quot;font-size: 24px;&quot;&gt;&lt;br&gt;&lt;/font&gt;&lt;/div&gt;&lt;font style=&quot;font-size: 24px;&quot;&gt;&lt;div&gt;&lt;font style=&quot;font-size: 24px;&quot;&gt;&lt;br&gt;&lt;/font&gt;&lt;/div&gt;Media&lt;/font&gt;&lt;div&gt;&lt;font size=&quot;3&quot;&gt;&lt;br&gt;&lt;/font&gt;&lt;/div&gt;&lt;div&gt;&lt;font size=&quot;3&quot;&gt;&lt;br&gt;&lt;/font&gt;&lt;/div&gt;&lt;div&gt;&lt;font size=&quot;3&quot;&gt;&lt;br&gt;&lt;/font&gt;&lt;/div&gt;&lt;div&gt;&lt;font size=&quot;3&quot;&gt;&lt;br&gt;&lt;/font&gt;&lt;/div&gt;&lt;div&gt;&lt;font size=&quot;3&quot;&gt;&lt;br&gt;&lt;/font&gt;&lt;/div&gt;&lt;div&gt;&lt;font size=&quot;3&quot;&gt;&lt;br&gt;&lt;/font&gt;&lt;/div&gt;&lt;div&gt;&lt;font size=&quot;3&quot;&gt;&lt;br&gt;&lt;/font&gt;&lt;/div&gt;&lt;div&gt;&lt;font size=&quot;3&quot;&gt;&lt;br&gt;&lt;/font&gt;&lt;/div&gt;&lt;div&gt;&lt;font size=&quot;3&quot;&gt;&lt;br&gt;&lt;/font&gt;&lt;/div&gt;&lt;div&gt;&lt;font size=&quot;3&quot;&gt;&lt;br&gt;&lt;/font&gt;&lt;/div&gt;&lt;div&gt;&lt;font size=&quot;3&quot;&gt;&lt;br&gt;&lt;/font&gt;&lt;/div&gt;&lt;div&gt;&lt;font size=&quot;3&quot;&gt;&lt;br&gt;&lt;/font&gt;&lt;/div&gt;&lt;div&gt;&lt;font size=&quot;3&quot;&gt;&lt;br&gt;&lt;/font&gt;&lt;/div&gt;&lt;div&gt;&lt;font size=&quot;3&quot;&gt;&lt;br&gt;&lt;/font&gt;&lt;/div&gt;&lt;div&gt;&lt;br&gt;&lt;/div&gt;" style="rounded=1;whiteSpace=wrap;html=1;fillColor=#99CCFF;" vertex="1" parent="1">
          <mxGeometry x="360" y="25" width="800" height="280" as="geometry" />
        </mxCell>
        <mxCell id="m4qAgDCgxIv8DjNnzr-K-10" value="" style="whiteSpace=wrap;html=1;aspect=fixed;dashed=1;" parent="1" vertex="1">
          <mxGeometry x="880" y="40" width="240" height="240" as="geometry" />
        </mxCell>
        <mxCell id="m4qAgDCgxIv8DjNnzr-K-4" value="" style="whiteSpace=wrap;html=1;aspect=fixed;dashed=1;" parent="1" vertex="1">
          <mxGeometry x="400" y="40" width="240" height="240" as="geometry" />
        </mxCell>
        <mxCell id="eyhWr03OwRXaI2JMvgyb-3" style="edgeStyle=orthogonalEdgeStyle;rounded=0;orthogonalLoop=1;jettySize=auto;html=1;entryX=0;entryY=0.5;entryDx=0;entryDy=0;" parent="1" source="eyhWr03OwRXaI2JMvgyb-1" target="m4qAgDCgxIv8DjNnzr-K-4" edge="1">
          <mxGeometry relative="1" as="geometry">
            <mxPoint x="200" y="140" as="targetPoint" />
          </mxGeometry>
        </mxCell>
        <mxCell id="eyhWr03OwRXaI2JMvgyb-1" value="Wistia - Web API" style="outlineConnect=0;dashed=0;verticalLabelPosition=bottom;verticalAlign=top;align=center;html=1;shape=mxgraph.aws3.apps;fillColor=#759C3E;gradientColor=none;" parent="1" vertex="1">
          <mxGeometry x="60" y="351.25" width="180" height="199.5" as="geometry" />
        </mxCell>
        <mxCell id="m4qAgDCgxIv8DjNnzr-K-5" value="" style="edgeStyle=orthogonalEdgeStyle;rounded=0;orthogonalLoop=1;jettySize=auto;html=1;" parent="1" source="eyhWr03OwRXaI2JMvgyb-1" target="AIjkGTHtsxKVKW9na2vk-2" edge="1">
          <mxGeometry relative="1" as="geometry">
            <mxPoint x="141" y="419.8888888888889" as="sourcePoint" />
            <mxPoint x="340.99999999999955" y="280" as="targetPoint" />
          </mxGeometry>
        </mxCell>
        <mxCell id="AIjkGTHtsxKVKW9na2vk-19" style="edgeStyle=orthogonalEdgeStyle;rounded=0;orthogonalLoop=1;jettySize=auto;html=1;" edge="1" parent="1" source="m4qAgDCgxIv8DjNnzr-K-1" target="m4qAgDCgxIv8DjNnzr-K-6">
          <mxGeometry relative="1" as="geometry" />
        </mxCell>
        <mxCell id="m4qAgDCgxIv8DjNnzr-K-1" value="AWS Lambda" style="sketch=0;outlineConnect=0;fontColor=#232F3E;gradientColor=none;strokeColor=#ffffff;fillColor=#232F3E;dashed=0;verticalLabelPosition=middle;verticalAlign=bottom;align=center;html=1;whiteSpace=wrap;fontSize=10;fontStyle=1;spacing=3;shape=mxgraph.aws4.productIcon;prIcon=mxgraph.aws4.lambda;" parent="1" vertex="1">
          <mxGeometry x="480" y="160" width="80" height="100" as="geometry" />
        </mxCell>
        <mxCell id="m4qAgDCgxIv8DjNnzr-K-3" style="edgeStyle=orthogonalEdgeStyle;rounded=0;orthogonalLoop=1;jettySize=auto;html=1;" parent="1" source="m4qAgDCgxIv8DjNnzr-K-2" target="m4qAgDCgxIv8DjNnzr-K-1" edge="1">
          <mxGeometry relative="1" as="geometry" />
        </mxCell>
        <mxCell id="m4qAgDCgxIv8DjNnzr-K-2" value="Lambda Trigger/Scheduler?" style="sketch=0;outlineConnect=0;fontColor=#232F3E;gradientColor=none;fillColor=#E7157B;strokeColor=none;dashed=0;verticalLabelPosition=bottom;verticalAlign=top;align=center;html=1;fontSize=12;fontStyle=0;aspect=fixed;pointerEvents=1;shape=mxgraph.aws4.eventbridge_scheduler;" parent="1" vertex="1">
          <mxGeometry x="490" y="60" width="60" height="60" as="geometry" />
        </mxCell>
        <mxCell id="m4qAgDCgxIv8DjNnzr-K-9" style="edgeStyle=orthogonalEdgeStyle;rounded=0;orthogonalLoop=1;jettySize=auto;html=1;" parent="1" source="m4qAgDCgxIv8DjNnzr-K-6" target="m4qAgDCgxIv8DjNnzr-K-7" edge="1">
          <mxGeometry relative="1" as="geometry" />
        </mxCell>
        <mxCell id="m4qAgDCgxIv8DjNnzr-K-6" value="Amazon S3&lt;div&gt;Raw Data&lt;/div&gt;" style="sketch=0;outlineConnect=0;fontColor=#232F3E;gradientColor=none;strokeColor=#ffffff;fillColor=#232F3E;dashed=0;verticalLabelPosition=middle;verticalAlign=bottom;align=center;html=1;whiteSpace=wrap;fontSize=10;fontStyle=1;spacing=3;shape=mxgraph.aws4.productIcon;prIcon=mxgraph.aws4.s3;" parent="1" vertex="1">
          <mxGeometry x="690" y="220" width="140" height="180" as="geometry" />
        </mxCell>
        <mxCell id="m4qAgDCgxIv8DjNnzr-K-14" style="edgeStyle=orthogonalEdgeStyle;rounded=0;orthogonalLoop=1;jettySize=auto;html=1;" parent="1" source="m4qAgDCgxIv8DjNnzr-K-7" target="m4qAgDCgxIv8DjNnzr-K-13" edge="1">
          <mxGeometry relative="1" as="geometry" />
        </mxCell>
        <mxCell id="m4qAgDCgxIv8DjNnzr-K-7" value="AWS Glue - (Pyspark)" style="sketch=0;outlineConnect=0;fontColor=#232F3E;gradientColor=none;strokeColor=#ffffff;fillColor=#232F3E;dashed=0;verticalLabelPosition=middle;verticalAlign=bottom;align=center;html=1;whiteSpace=wrap;fontSize=10;fontStyle=1;spacing=3;shape=mxgraph.aws4.productIcon;prIcon=mxgraph.aws4.glue;" parent="1" vertex="1">
          <mxGeometry x="961" y="160" width="80" height="120" as="geometry" />
        </mxCell>
        <mxCell id="m4qAgDCgxIv8DjNnzr-K-12" value="" style="edgeStyle=orthogonalEdgeStyle;rounded=0;orthogonalLoop=1;jettySize=auto;html=1;" parent="1" source="m4qAgDCgxIv8DjNnzr-K-11" target="m4qAgDCgxIv8DjNnzr-K-7" edge="1">
          <mxGeometry relative="1" as="geometry" />
        </mxCell>
        <mxCell id="m4qAgDCgxIv8DjNnzr-K-11" value="Job Scheduler?" style="sketch=0;outlineConnect=0;fontColor=#232F3E;gradientColor=none;fillColor=#E7157B;strokeColor=none;dashed=0;verticalLabelPosition=bottom;verticalAlign=top;align=center;html=1;fontSize=12;fontStyle=0;aspect=fixed;pointerEvents=1;shape=mxgraph.aws4.eventbridge_scheduler;" parent="1" vertex="1">
          <mxGeometry x="960" y="60" width="60" height="60" as="geometry" />
        </mxCell>
        <mxCell id="m4qAgDCgxIv8DjNnzr-K-16" value="" style="edgeStyle=orthogonalEdgeStyle;rounded=0;orthogonalLoop=1;jettySize=auto;html=1;" parent="1" source="m4qAgDCgxIv8DjNnzr-K-13" target="m4qAgDCgxIv8DjNnzr-K-15" edge="1">
          <mxGeometry relative="1" as="geometry" />
        </mxCell>
        <mxCell id="m4qAgDCgxIv8DjNnzr-K-13" value="Amazon S3&lt;div&gt;Processed Data: Parquet&lt;/div&gt;" style="sketch=0;outlineConnect=0;fontColor=#232F3E;gradientColor=none;strokeColor=#ffffff;fillColor=#232F3E;dashed=0;verticalLabelPosition=middle;verticalAlign=bottom;align=center;html=1;whiteSpace=wrap;fontSize=10;fontStyle=1;spacing=3;shape=mxgraph.aws4.productIcon;prIcon=mxgraph.aws4.s3;" parent="1" vertex="1">
          <mxGeometry x="1280" y="461" width="80" height="120" as="geometry" />
        </mxCell>
        <mxCell id="m4qAgDCgxIv8DjNnzr-K-18" value="" style="edgeStyle=orthogonalEdgeStyle;rounded=0;orthogonalLoop=1;jettySize=auto;html=1;" parent="1" source="m4qAgDCgxIv8DjNnzr-K-15" target="m4qAgDCgxIv8DjNnzr-K-17" edge="1">
          <mxGeometry relative="1" as="geometry" />
        </mxCell>
        <mxCell id="m4qAgDCgxIv8DjNnzr-K-15" value="AWS Glue Data Catalog&lt;div&gt;&lt;br&gt;&lt;/div&gt;" style="sketch=0;outlineConnect=0;fontColor=#232F3E;gradientColor=none;fillColor=#8C4FFF;strokeColor=none;dashed=0;verticalLabelPosition=bottom;verticalAlign=top;align=center;html=1;fontSize=12;fontStyle=0;aspect=fixed;pointerEvents=1;shape=mxgraph.aws4.glue_data_catalog;" parent="1" vertex="1">
          <mxGeometry x="1431" y="471" width="92.31" height="100" as="geometry" />
        </mxCell>
        <mxCell id="m4qAgDCgxIv8DjNnzr-K-17" value="AWS Analytics&lt;br&gt;Athena + Quicksight" style="whiteSpace=wrap;html=1;aspect=fixed;" parent="1" vertex="1">
          <mxGeometry x="2000" y="50" width="240" height="240" as="geometry" />
        </mxCell>
        <mxCell id="AIjkGTHtsxKVKW9na2vk-1" value="" style="whiteSpace=wrap;html=1;aspect=fixed;dashed=1;" vertex="1" parent="1">
          <mxGeometry x="880" y="351" width="240" height="240" as="geometry" />
        </mxCell>
        <mxCell id="AIjkGTHtsxKVKW9na2vk-2" value="" style="whiteSpace=wrap;html=1;aspect=fixed;dashed=1;" vertex="1" parent="1">
          <mxGeometry x="400" y="351" width="240" height="240" as="geometry" />
        </mxCell>
        <mxCell id="AIjkGTHtsxKVKW9na2vk-20" style="edgeStyle=orthogonalEdgeStyle;rounded=0;orthogonalLoop=1;jettySize=auto;html=1;" edge="1" parent="1">
          <mxGeometry relative="1" as="geometry">
            <mxPoint x="560.0000000000005" y="520.9999999999995" as="sourcePoint" />
            <mxPoint x="759.9999999999995" y="400" as="targetPoint" />
          </mxGeometry>
        </mxCell>
        <mxCell id="AIjkGTHtsxKVKW9na2vk-4" value="AWS Lambda" style="sketch=0;outlineConnect=0;fontColor=#232F3E;gradientColor=none;strokeColor=#ffffff;fillColor=#232F3E;dashed=0;verticalLabelPosition=middle;verticalAlign=bottom;align=center;html=1;whiteSpace=wrap;fontSize=10;fontStyle=1;spacing=3;shape=mxgraph.aws4.productIcon;prIcon=mxgraph.aws4.lambda;" vertex="1" parent="1">
          <mxGeometry x="480" y="471" width="80" height="100" as="geometry" />
        </mxCell>
        <mxCell id="AIjkGTHtsxKVKW9na2vk-5" style="edgeStyle=orthogonalEdgeStyle;rounded=0;orthogonalLoop=1;jettySize=auto;html=1;" edge="1" parent="1" source="AIjkGTHtsxKVKW9na2vk-6" target="AIjkGTHtsxKVKW9na2vk-4">
          <mxGeometry relative="1" as="geometry" />
        </mxCell>
        <mxCell id="AIjkGTHtsxKVKW9na2vk-6" value="Lambda Trigger/Scheduler?" style="sketch=0;outlineConnect=0;fontColor=#232F3E;gradientColor=none;fillColor=#E7157B;strokeColor=none;dashed=0;verticalLabelPosition=bottom;verticalAlign=top;align=center;html=1;fontSize=12;fontStyle=0;aspect=fixed;pointerEvents=1;shape=mxgraph.aws4.eventbridge_scheduler;" vertex="1" parent="1">
          <mxGeometry x="490" y="371" width="60" height="60" as="geometry" />
        </mxCell>
        <mxCell id="AIjkGTHtsxKVKW9na2vk-7" style="edgeStyle=orthogonalEdgeStyle;rounded=0;orthogonalLoop=1;jettySize=auto;html=1;" edge="1" parent="1" source="m4qAgDCgxIv8DjNnzr-K-6" target="AIjkGTHtsxKVKW9na2vk-9">
          <mxGeometry relative="1" as="geometry">
            <mxPoint x="800" y="530.9999999999995" as="sourcePoint" />
            <Array as="points">
              <mxPoint x="760" y="480" />
            </Array>
          </mxGeometry>
        </mxCell>
        <mxCell id="AIjkGTHtsxKVKW9na2vk-15" style="edgeStyle=orthogonalEdgeStyle;rounded=0;orthogonalLoop=1;jettySize=auto;html=1;" edge="1" parent="1" source="AIjkGTHtsxKVKW9na2vk-9" target="m4qAgDCgxIv8DjNnzr-K-13">
          <mxGeometry relative="1" as="geometry" />
        </mxCell>
        <mxCell id="AIjkGTHtsxKVKW9na2vk-9" value="AWS Glue - (Pyspark)" style="sketch=0;outlineConnect=0;fontColor=#232F3E;gradientColor=none;strokeColor=#ffffff;fillColor=#232F3E;dashed=0;verticalLabelPosition=middle;verticalAlign=bottom;align=center;html=1;whiteSpace=wrap;fontSize=10;fontStyle=1;spacing=3;shape=mxgraph.aws4.productIcon;prIcon=mxgraph.aws4.glue;" vertex="1" parent="1">
          <mxGeometry x="961" y="471" width="80" height="120" as="geometry" />
        </mxCell>
        <mxCell id="AIjkGTHtsxKVKW9na2vk-10" value="" style="edgeStyle=orthogonalEdgeStyle;rounded=0;orthogonalLoop=1;jettySize=auto;html=1;" edge="1" parent="1" source="AIjkGTHtsxKVKW9na2vk-11" target="AIjkGTHtsxKVKW9na2vk-9">
          <mxGeometry relative="1" as="geometry" />
        </mxCell>
        <mxCell id="AIjkGTHtsxKVKW9na2vk-11" value="Job Scheduler?" style="sketch=0;outlineConnect=0;fontColor=#232F3E;gradientColor=none;fillColor=#E7157B;strokeColor=none;dashed=0;verticalLabelPosition=bottom;verticalAlign=top;align=center;html=1;fontSize=12;fontStyle=0;aspect=fixed;pointerEvents=1;shape=mxgraph.aws4.eventbridge_scheduler;" vertex="1" parent="1">
          <mxGeometry x="960" y="371" width="60" height="60" as="geometry" />
        </mxCell>
      </root>
    </mxGraphModel>
  </diagram>
</mxfile>
